# xmcd CD database file
#
# Track frame offsets:
#	150
#	6631
#	28244
#	58014
#	87199
#	125730
#	164145
#	198343
#	227247
#	245859
#
# Disc length: 3856 seconds
#
# Revision: 0
# Processed by: cddbd v1.5.1PL0 Copyright (c) Steve Scherf et al.
# Submitted via: CDex 1.51
#
DISCID=960f0e0a
DTITLE=Morblus - 90% Blues 10% Funky 101% Pure Morblus  - Live Recording
DYEAR=2005
DGENRE=Blues
TTITLE0=The Boomers
TTITLE1=Hideway
TTITLE2=Come With Me
TTITLE3=Got My Mojo Working
TTITLE4=Ain't Nobody's Business
TTITLE5=Caldonia
TTITLE6=Funkin'Up
TTITLE7=You Gonna Miss Me
TTITLE8=The Stumble
TTITLE9=Mustang Sally
EXTD=YEAR: 2005
EXTT0=
EXTT1=
EXTT2=
EXTT3=
EXTT4=
EXTT5=
EXTT6=
EXTT7=
EXTT8=
EXTT9=
PLAYORDER=
